<svg xmlns="http://www.w3.org/2000/svg" width="1200" height="720" viewBox="0 0 1200 720">
<rect width="100%" height="100%" fill="#ffffff"/>
<style>text{font-family:Arial,Helvetica,sans-serif;fill:#1f2933}.axis{stroke:#2f3a45;stroke-width:1.2}.grid{stroke:#d8dee5;stroke-width:1}.fail{fill:#b9c2cc;fill-opacity:.72}.keep{fill:#111827;fill-opacity:.92}.best{fill:#0f172a;stroke:#ffffff;stroke-width:1.5}</style>
<text x="78" y="27" font-size="22" font-weight="700">MTPL Autoresearch Experiments: Capped Pure Premium Gini</text>
<text x="78" y="51" font-size="13">271 total experiments | dark = keep/success | light = discard/crash | best gini = 0.1911</text>
<line class="grid" x1="78" y1="642.00" x2="1166" y2="642.00"/>
<text x="66" y="646.00" font-size="12" text-anchor="end">0.000</text>
<line class="grid" x1="78" y1="522.40" x2="1166" y2="522.40"/>
<text x="66" y="526.40" font-size="12" text-anchor="end">0.041</text>
<line class="grid" x1="78" y1="402.80" x2="1166" y2="402.80"/>
<text x="66" y="406.80" font-size="12" text-anchor="end">0.083</text>
<line class="grid" x1="78" y1="283.20" x2="1166" y2="283.20"/>
<text x="66" y="287.20" font-size="12" text-anchor="end">0.124</text>
<line class="grid" x1="78" y1="163.60" x2="1166" y2="163.60"/>
<text x="66" y="167.60" font-size="12" text-anchor="end">0.165</text>
<line class="grid" x1="78" y1="44.00" x2="1166" y2="44.00"/>
<text x="66" y="48.00" font-size="12" text-anchor="end">0.206</text>
<line class="grid" x1="78.00" y1="44" x2="78.00" y2="642"/>
<text x="78.00" y="666" font-size="12" text-anchor="middle">1</text>
<line class="grid" x1="295.60" y1="44" x2="295.60" y2="642"/>
<text x="295.60" y="666" font-size="12" text-anchor="middle">55</text>
<line class="grid" x1="513.20" y1="44" x2="513.20" y2="642"/>
<text x="513.20" y="666" font-size="12" text-anchor="middle">109</text>
<line class="grid" x1="730.80" y1="44" x2="730.80" y2="642"/>
<text x="730.80" y="666" font-size="12" text-anchor="middle">163</text>
<line class="grid" x1="948.40" y1="44" x2="948.40" y2="642"/>
<text x="948.40" y="666" font-size="12" text-anchor="middle">217</text>
<line class="grid" x1="1166.00" y1="44" x2="1166.00" y2="642"/>
<text x="1166.00" y="666" font-size="12" text-anchor="middle">271</text>
<line class="axis" x1="78" y1="642" x2="1166" y2="642"/>
<line class="axis" x1="78" y1="44" x2="78" y2="642"/>
<text x="600.0" y="696" font-size="15" text-anchor="middle">Experiment number</text>
<text transform="translate(22 360.0) rotate(-90)" font-size="15" text-anchor="middle">Capped pure premium Gini</text>
<circle class="fail" cx="82.03" cy="159.28" r="3.2"><title>#2 enhanced_glm_component_scalars: 0.1666 (discard)</title></circle>
<circle class="fail" cx="86.06" cy="157.84" r="3.2"><title>#3 enhanced_glm_driver_car_age_interaction: 0.1671 (discard)</title></circle>
<circle class="fail" cx="90.09" cy="158.41" r="3.2"><title>#4 enhanced_glm_power_brand_frequency: 0.1669 (discard)</title></circle>
<circle class="fail" cx="98.15" cy="112.92" r="3.2"><title>#6 lightgbm_deeper_frequency_capped: 0.1826 (discard)</title></circle>
<circle class="fail" cx="102.18" cy="109.16" r="3.2"><title>#7 lightgbm_flexible_capped_severity: 0.1839 (discard)</title></circle>
<circle class="fail" cx="106.21" cy="104.23" r="3.2"><title>#8 lightgbm_aggressive_capped_severity: 0.1856 (discard)</title></circle>
<circle class="fail" cx="110.24" cy="161.60" r="3.2"><title>#9 enhanced_glm_region_density_frequency: 0.1658 (discard)</title></circle>
<circle class="fail" cx="114.27" cy="642.00" r="3.2"><title>#10 enhanced_glm_region_density_capped_severity: 0.0000 (crash)</title></circle>
<circle class="fail" cx="118.30" cy="183.91" r="3.2"><title>#11 enhanced_glm_driver_car_age_capped_severity: 0.1581 (discard)</title></circle>
<circle class="fail" cx="122.33" cy="152.91" r="3.2"><title>#12 enhanced_glm_power_brand_capped_severity: 0.1688 (discard)</title></circle>
<circle class="fail" cx="126.36" cy="114.66" r="3.2"><title>#13 lightgbm_expanded_regularized_grid: 0.1820 (discard)</title></circle>
<circle class="fail" cx="130.39" cy="157.26" r="3.2"><title>#14 enhanced_glm_power_brand_frequency_capped: 0.1673 (discard)</title></circle>
<circle class="fail" cx="134.41" cy="112.63" r="3.2"><title>#15 lightgbm_frequency_ranking_push: 0.1827 (discard)</title></circle>
<circle class="fail" cx="138.44" cy="118.14" r="3.2"><title>#16 lightgbm_moderate_capped_severity_push: 0.1808 (discard)</title></circle>
<circle class="fail" cx="142.47" cy="106.84" r="3.2"><title>#17 lightgbm_midleaf_frequency_probe: 0.1847 (discard)</title></circle>
<circle class="fail" cx="146.50" cy="106.84" r="3.2"><title>#18 lightgbm_midleaf_frequency_mild_capped: 0.1847 (discard)</title></circle>
<circle class="fail" cx="150.53" cy="101.91" r="3.2"><title>#19 lightgbm_midleaf_frequency_forced_aggressive_capped: 0.1864 (discard)</title></circle>
<circle class="fail" cx="154.56" cy="98.73" r="3.2"><title>#20 lightgbm_midleaf_frequency_stronger_capped: 0.1875 (discard)</title></circle>
<circle class="fail" cx="158.59" cy="107.42" r="3.2"><title>#21 lightgbm_midleaf_frequency_edge_capped: 0.1845 (discard)</title></circle>
<circle class="fail" cx="162.62" cy="103.36" r="3.2"><title>#22 lightgbm_tuned_midleaf_stronger_capped: 0.1859 (discard)</title></circle>
<circle class="fail" cx="166.65" cy="156.68" r="3.2"><title>#23 enhanced_glm_power_brand_capped_calibrated: 0.1675 (discard)</title></circle>
<circle class="fail" cx="170.68" cy="115.24" r="3.2"><title>#24 lightgbm_midleaf_frequency_restrained_severity: 0.1818 (discard)</title></circle>
<circle class="fail" cx="174.71" cy="152.91" r="3.2"><title>#25 enhanced_glm_power_brand_dual_severity: 0.1688 (discard)</title></circle>
<circle class="fail" cx="178.74" cy="112.35" r="3.2"><title>#26 lightgbm_longer_midleaf_stronger_capped: 0.1828 (discard)</title></circle>
<circle class="fail" cx="182.77" cy="155.81" r="3.2"><title>#27 enhanced_glm_agefreq_powerbrand_dual_severity: 0.1678 (discard)</title></circle>
<circle class="fail" cx="186.80" cy="154.07" r="3.2"><title>#28 enhanced_glm_power_brand_raw_severity: 0.1684 (discard)</title></circle>
<circle class="fail" cx="190.83" cy="106.84" r="3.2"><title>#29 lightgbm_shorter_midleaf_stronger_capped: 0.1847 (discard)</title></circle>
<circle class="fail" cx="194.86" cy="246.21" r="3.2"><title>#30 simple_glm_power_brand_capped_severity: 0.1366 (discard)</title></circle>
<circle class="fail" cx="198.89" cy="98.73" r="3.2"><title>#31 lightgbm_midleaf_stronger_capped_raw_severity_push: 0.1875 (discard)</title></circle>
<circle class="fail" cx="202.92" cy="166.53" r="3.2"><title>#32 glm_aggressive_full_enhanced: 0.1641 (discard)</title></circle>
<circle class="fail" cx="206.95" cy="123.93" r="3.2"><title>#33 lightgbm_ultra_regularized: 0.1788 (discard)</title></circle>
<circle class="fail" cx="210.98" cy="108.58" r="3.2"><title>#34 lightgbm_tuned_aggressive_regularized: 0.1841 (discard)</title></circle>
<circle class="fail" cx="215.01" cy="115.24" r="3.2"><title>#35 lightgbm_frequency_focused: 0.1818 (discard)</title></circle>
<circle class="fail" cx="219.04" cy="154.07" r="3.2"><title>#36 glm_baseline_plus_spline_degrees: 0.1684 (discard)</title></circle>
<circle class="fail" cx="223.07" cy="112.63" r="3.2"><title>#37 lightgbm_regularized_challenger: 0.1827 (discard)</title></circle>
<circle class="fail" cx="227.10" cy="115.53" r="3.2"><title>#38 lightgbm_deeper_boosting: 0.1817 (discard)</title></circle>
<circle class="fail" cx="231.13" cy="107.42" r="3.2"><title>#39 lightgbm_best_plus_learning_rate: 0.1845 (discard)</title></circle>
<circle class="fail" cx="235.16" cy="113.79" r="3.2"><title>#40 lightgbm_aggressive_bagging: 0.1823 (discard)</title></circle>
<circle class="fail" cx="239.19" cy="120.46" r="3.2"><title>#41 lightgbm_blend_best_params: 0.1800 (discard)</title></circle>
<circle class="fail" cx="243.21" cy="122.78" r="3.2"><title>#42 lightgbm_less_regularized: 0.1792 (discard)</title></circle>
<circle class="fail" cx="247.24" cy="112.63" r="3.2"><title>#43 lightgbm_regularized_challenger: 0.1827 (discard)</title></circle>
<circle class="fail" cx="251.27" cy="111.77" r="3.2"><title>#44 lightgbm_best_plus_min_data: 0.1830 (discard)</title></circle>
<circle class="fail" cx="255.30" cy="108.29" r="3.2"><title>#45 lightgbm_frequency_deeper: 0.1842 (discard)</title></circle>
<circle class="fail" cx="259.33" cy="108.58" r="3.2"><title>#46 lightgbm_frequency_16_20: 0.1841 (discard)</title></circle>
<circle class="fail" cx="263.36" cy="107.42" r="3.2"><title>#47 lightgbm_best_plus_learning_rate: 0.1845 (discard)</title></circle>
<circle class="fail" cx="275.45" cy="110.61" r="3.2"><title>#50 lightgbm_even_more_leaves: 0.1834 (discard)</title></circle>
<circle class="fail" cx="299.63" cy="106.55" r="3.2"><title>#56 lightgbm_optimal_balance: 0.1848 (discard)</title></circle>
<circle class="fail" cx="307.69" cy="105.68" r="3.2"><title>#58 lightgbm_class_weight: 0.1851 (discard)</title></circle>
<circle class="fail" cx="311.72" cy="105.68" r="3.2"><title>#59 lightgbm_huber_loss: 0.1851 (discard)</title></circle>
<circle class="fail" cx="315.75" cy="105.68" r="3.2"><title>#60 lightgbm_dart_booster: 0.1851 (discard)</title></circle>
<circle class="fail" cx="319.78" cy="107.71" r="3.2"><title>#61 lightgbm_higher_early_stop: 0.1844 (discard)</title></circle>
<circle class="fail" cx="323.81" cy="102.49" r="3.2"><title>#62 lightgbm_best_seed_avg: 0.1862 (discard)</title></circle>
<circle class="fail" cx="327.84" cy="106.84" r="3.2"><title>#63 lightgbm_smoother_more_reg: 0.1847 (discard)</title></circle>
<circle class="fail" cx="331.87" cy="112.06" r="3.2"><title>#64 lightgbm_fewer_leaves_better: 0.1829 (discard)</title></circle>
<circle class="fail" cx="347.99" cy="119.59" r="3.2"><title>#68 lightgbm_deeper_less_reg: 0.1803 (discard)</title></circle>
<circle class="fail" cx="356.04" cy="111.48" r="3.2"><title>#70 lightgbm_mid_leaves_mid_reg: 0.1831 (discard)</title></circle>
<circle class="fail" cx="360.07" cy="115.82" r="3.2"><title>#71 lightgbm_compact_search: 0.1816 (discard)</title></circle>
<circle class="fail" cx="376.19" cy="112.06" r="3.2"><title>#75 lightgbm_exact_best_plus: 0.1829 (discard)</title></circle>
<circle class="fail" cx="384.25" cy="110.90" r="3.2"><title>#77 lightgbm_18_26_lr043: 0.1833 (discard)</title></circle>
<circle class="fail" cx="396.34" cy="117.85" r="3.2"><title>#80 lightgbm_15_24_v2: 0.1809 (discard)</title></circle>
<circle class="fail" cx="400.37" cy="120.46" r="3.2"><title>#81 lightgbm_15_24_low_lr: 0.1800 (discard)</title></circle>
<circle class="fail" cx="404.40" cy="111.19" r="3.2"><title>#82 lightgbm_12_20_high_min: 0.1832 (discard)</title></circle>
<circle class="fail" cx="408.43" cy="243.02" r="3.2"><title>#83 catboost_baseline: 0.1377 (discard)</title></circle>
<circle class="fail" cx="424.55" cy="108.00" r="3.2"><title>#87 lightgbm_ultra_random: 0.1843 (discard)</title></circle>
<circle class="fail" cx="428.58" cy="111.48" r="3.2"><title>#88 lightgbm_optimal_random: 0.1831 (discard)</title></circle>
<circle class="fail" cx="440.67" cy="103.94" r="3.2"><title>#91 lightgbm_diverse_v2: 0.1857 (discard)</title></circle>
<circle class="fail" cx="444.70" cy="106.26" r="3.2"><title>#92 lightgbm_diverse_v3: 0.1849 (discard)</title></circle>
<circle class="fail" cx="448.73" cy="92.35" r="3.2"><title>#93 lightgbm_diverse_repro: 0.1897 (discard)</title></circle>
<circle class="fail" cx="452.76" cy="108.29" r="3.2"><title>#94 lightgbm_19_breaker: 0.1842 (discard)</title></circle>
<circle class="fail" cx="460.81" cy="110.90" r="3.2"><title>#96 lightgbm_19_plus: 0.1833 (discard)</title></circle>
<circle class="fail" cx="464.84" cy="89.17" r="3.2"><title>#97 lightgbm_19_final: 0.1908 (discard)</title></circle>
<circle class="fail" cx="468.87" cy="106.55" r="3.2"><title>#98 lightgbm_191_push: 0.1848 (discard)</title></circle>
<circle class="fail" cx="480.96" cy="112.63" r="3.2"><title>#101 lightgbm_191_slight: 0.1827 (discard)</title></circle>
<circle class="fail" cx="484.99" cy="96.70" r="3.2"><title>#102 lightgbm_191_more_rounds: 0.1882 (discard)</title></circle>
<circle class="fail" cx="497.08" cy="103.36" r="3.2"><title>#105 lightgbm_191_lower_min: 0.1859 (discard)</title></circle>
<circle class="fail" cx="505.14" cy="90.03" r="3.2"><title>#107 lightgbm_191_higher_lr: 0.1905 (discard)</title></circle>
<circle class="fail" cx="509.17" cy="96.12" r="3.2"><title>#108 lightgbm_191_compact: 0.1884 (discard)</title></circle>
<circle class="fail" cx="517.23" cy="89.46" r="3.2"><title>#110 lightgbm_191_exact_v3: 0.1907 (discard)</title></circle>
<circle class="fail" cx="521.26" cy="88.59" r="3.2"><title>#111 lightgbm_191_exact_v4: 0.1910 (discard)</title></circle>
<circle class="fail" cx="525.29" cy="88.88" r="3.2"><title>#112 lightgbm_191_try: 0.1909 (discard)</title></circle>
<circle class="fail" cx="529.32" cy="94.67" r="3.2"><title>#113 lightgbm_191_sweeter: 0.1889 (discard)</title></circle>
<circle class="fail" cx="533.35" cy="89.75" r="3.2"><title>#114 lightgbm_0001_autotune: 0.1906 (discard)</title></circle>
<circle class="fail" cx="537.38" cy="91.19" r="3.2"><title>#115 lightgbm_0002_autotune: 0.1901 (discard)</title></circle>
<circle class="fail" cx="541.41" cy="91.19" r="3.2"><title>#116 lightgbm_0002_autotune: 0.1901 (discard)</title></circle>
<circle class="fail" cx="545.44" cy="91.19" r="3.2"><title>#117 lightgbm_0002_autotune: 0.1901 (discard)</title></circle>
<circle class="fail" cx="549.47" cy="88.30" r="3.2"><title>#118 lightgbm_0001_autotune: 0.1911 (discard)</title></circle>
<circle class="fail" cx="553.50" cy="88.30" r="3.2"><title>#119 lightgbm_0001_autotune: 0.1911 (discard)</title></circle>
<circle class="fail" cx="557.53" cy="89.17" r="3.2"><title>#120 lightgbm_0001_autotune: 0.1908 (discard)</title></circle>
<circle class="fail" cx="561.56" cy="90.32" r="3.2"><title>#121 lightgbm_0001_autotune: 0.1904 (discard)</title></circle>
<circle class="fail" cx="565.59" cy="96.41" r="3.2"><title>#122 lightgbm_0001_autotune: 0.1883 (discard)</title></circle>
<circle class="fail" cx="569.61" cy="92.06" r="3.2"><title>#123 lightgbm_0001_autotune: 0.1898 (discard)</title></circle>
<circle class="fail" cx="573.64" cy="99.60" r="3.2"><title>#124 lightgbm_0002_autotune: 0.1872 (discard)</title></circle>
<circle class="fail" cx="577.67" cy="90.32" r="3.2"><title>#125 lightgbm_0003_autotune: 0.1904 (discard)</title></circle>
<circle class="fail" cx="581.70" cy="89.17" r="3.2"><title>#126 lightgbm_0004_autotune: 0.1908 (discard)</title></circle>
<circle class="fail" cx="585.73" cy="89.17" r="3.2"><title>#127 lightgbm_0005_autotune: 0.1908 (discard)</title></circle>
<circle class="fail" cx="589.76" cy="107.71" r="3.2"><title>#128 lightgbm_ft_0001: 0.1844 (discard)</title></circle>
<circle class="fail" cx="593.79" cy="90.03" r="3.2"><title>#129 lightgbm_ft_0002: 0.1905 (discard)</title></circle>
<circle class="fail" cx="597.82" cy="89.75" r="3.2"><title>#130 lightgbm_ft_0003: 0.1906 (discard)</title></circle>
<circle class="fail" cx="601.85" cy="108.58" r="3.2"><title>#131 lightgbm_ft_0004: 0.1841 (discard)</title></circle>
<circle class="fail" cx="605.88" cy="88.30" r="3.2"><title>#132 lightgbm_ft_0005: 0.1911 (discard)</title></circle>
<circle class="fail" cx="609.91" cy="90.03" r="3.2"><title>#133 lightgbm_ft_0006: 0.1905 (discard)</title></circle>
<circle class="fail" cx="613.94" cy="88.88" r="3.2"><title>#134 lightgbm_ft_0007: 0.1909 (discard)</title></circle>
<circle class="fail" cx="617.97" cy="88.30" r="3.2"><title>#135 lightgbm_ft_0008: 0.1911 (discard)</title></circle>
<circle class="fail" cx="622.00" cy="98.44" r="3.2"><title>#136 lightgbm_ex_0009: 0.1876 (discard)</title></circle>
<circle class="fail" cx="626.03" cy="97.57" r="3.2"><title>#137 lightgbm_ex_0010: 0.1879 (discard)</title></circle>
<circle class="fail" cx="630.06" cy="108.29" r="3.2"><title>#138 lightgbm_ex_0011: 0.1842 (discard)</title></circle>
<circle class="fail" cx="634.09" cy="108.29" r="3.2"><title>#139 lightgbm_ex_0012: 0.1842 (discard)</title></circle>
<circle class="fail" cx="638.12" cy="107.13" r="3.2"><title>#140 lightgbm_ex_0013: 0.1846 (discard)</title></circle>
<circle class="fail" cx="646.18" cy="113.79" r="3.2"><title>#142 lightgbm_ex_0015: 0.1823 (discard)</title></circle>
<circle class="fail" cx="658.27" cy="93.80" r="3.2"><title>#145 lightgbm_ex_0018: 0.1892 (discard)</title></circle>
<circle class="fail" cx="662.30" cy="103.65" r="3.2"><title>#146 lightgbm_ex_0019: 0.1858 (discard)</title></circle>
<circle class="fail" cx="666.33" cy="94.96" r="3.2"><title>#147 lightgbm_ex_0020: 0.1888 (discard)</title></circle>
<circle class="fail" cx="670.36" cy="101.91" r="3.2"><title>#148 lightgbm_ft_0001: 0.1864 (discard)</title></circle>
<circle class="fail" cx="674.39" cy="105.97" r="3.2"><title>#149 lightgbm_ft_0002: 0.1850 (discard)</title></circle>
<circle class="fail" cx="678.41" cy="110.32" r="3.2"><title>#150 lightgbm_ft_0003: 0.1835 (discard)</title></circle>
<circle class="fail" cx="694.53" cy="101.62" r="3.2"><title>#154 lightgbm_ft_0007: 0.1865 (discard)</title></circle>
<circle class="fail" cx="706.62" cy="104.81" r="3.2"><title>#157 lightgbm_ex_0010: 0.1854 (discard)</title></circle>
<circle class="fail" cx="714.68" cy="111.77" r="3.2"><title>#159 lightgbm_ps_0001: 0.1830 (discard)</title></circle>
<circle class="fail" cx="722.74" cy="106.55" r="3.2"><title>#161 lightgbm_ft_0001: 0.1848 (discard)</title></circle>
<circle class="fail" cx="726.77" cy="108.87" r="3.2"><title>#162 lightgbm_ft_0001: 0.1840 (discard)</title></circle>
<circle class="fail" cx="738.86" cy="110.90" r="3.2"><title>#165 lightgbm_ft_0004: 0.1833 (discard)</title></circle>
<circle class="fail" cx="742.89" cy="105.39" r="3.2"><title>#166 lightgbm_ft_0005: 0.1852 (discard)</title></circle>
<circle class="fail" cx="746.92" cy="120.46" r="3.2"><title>#167 lightgbm_ft_0006: 0.1800 (discard)</title></circle>
<circle class="fail" cx="759.01" cy="91.19" r="3.2"><title>#170 lightgbm_ft_0001: 0.1901 (discard)</title></circle>
<circle class="fail" cx="763.04" cy="93.22" r="3.2"><title>#171 lightgbm_ft_0002: 0.1894 (discard)</title></circle>
<circle class="fail" cx="767.07" cy="96.99" r="3.2"><title>#172 lightgbm_ex_0001: 0.1881 (discard)</title></circle>
<circle class="fail" cx="775.13" cy="106.55" r="3.2"><title>#174 lightgbm_ft_0003: 0.1848 (discard)</title></circle>
<circle class="fail" cx="779.16" cy="98.15" r="3.2"><title>#175 lightgbm_ft_0004: 0.1877 (discard)</title></circle>
<circle class="fail" cx="795.27" cy="105.97" r="3.2"><title>#179 lightgbm_explore_0001: 0.1850 (discard)</title></circle>
<circle class="fail" cx="799.30" cy="99.31" r="3.2"><title>#180 lightgbm_fine_tune_0002: 0.1873 (discard)</title></circle>
<circle class="fail" cx="803.33" cy="104.23" r="3.2"><title>#181 lightgbm_explore_0003: 0.1856 (discard)</title></circle>
<circle class="fail" cx="807.36" cy="102.49" r="3.2"><title>#182 lightgbm_fine_tune_0004: 0.1862 (discard)</title></circle>
<circle class="fail" cx="811.39" cy="105.39" r="3.2"><title>#183 lightgbm_fine_tune_0005: 0.1852 (discard)</title></circle>
<circle class="fail" cx="815.42" cy="105.39" r="3.2"><title>#184 lightgbm_fine_tune_0006: 0.1852 (discard)</title></circle>
<circle class="fail" cx="819.45" cy="96.41" r="3.2"><title>#185 lightgbm_fine_tune_0007: 0.1883 (discard)</title></circle>
<circle class="fail" cx="827.51" cy="106.26" r="3.2"><title>#187 lightgbm_explore_0009: 0.1849 (discard)</title></circle>
<circle class="fail" cx="831.54" cy="100.76" r="3.2"><title>#188 lightgbm_fine_tune_0010: 0.1868 (discard)</title></circle>
<circle class="fail" cx="839.60" cy="95.83" r="3.2"><title>#190 lightgbm_fine_tune_0012: 0.1885 (discard)</title></circle>
<circle class="fail" cx="851.69" cy="97.86" r="3.2"><title>#193 lightgbm_fine_tune_0015: 0.1878 (discard)</title></circle>
<circle class="fail" cx="891.99" cy="99.02" r="3.2"><title>#203 lightgbm_fine_tune_0006: 0.1874 (discard)</title></circle>
<circle class="fail" cx="908.10" cy="105.10" r="3.2"><title>#207 lightgbm_fine_tune_0010: 0.1853 (discard)</title></circle>
<circle class="fail" cx="924.22" cy="98.44" r="3.2"><title>#211 lightgbm_fine_tune_0014: 0.1876 (discard)</title></circle>
<circle class="fail" cx="936.31" cy="93.80" r="3.2"><title>#214 lightgbm_explore_0017: 0.1892 (discard)</title></circle>
<circle class="fail" cx="940.34" cy="100.18" r="3.2"><title>#215 lightgbm_fine_tune_0018: 0.1870 (discard)</title></circle>
<circle class="fail" cx="944.37" cy="105.68" r="3.2"><title>#216 lightgbm_explore_0019: 0.1851 (discard)</title></circle>
<circle class="fail" cx="948.40" cy="111.19" r="3.2"><title>#217 lightgbm_fine_tune_0020: 0.1832 (discard)</title></circle>
<circle class="fail" cx="956.46" cy="110.32" r="3.2"><title>#219 lightgbm_ps_0001: 0.1835 (discard)</title></circle>
<circle class="fail" cx="960.49" cy="105.68" r="3.2"><title>#220 lightgbm_ps_0002: 0.1851 (discard)</title></circle>
<circle class="fail" cx="964.52" cy="99.31" r="3.2"><title>#221 lightgbm_ex_0003: 0.1873 (discard)</title></circle>
<circle class="fail" cx="968.55" cy="104.52" r="3.2"><title>#222 lightgbm_ps_0004: 0.1855 (discard)</title></circle>
<circle class="fail" cx="972.58" cy="109.45" r="3.2"><title>#223 lightgbm_ex_0005: 0.1838 (discard)</title></circle>
<circle class="fail" cx="976.61" cy="105.97" r="3.2"><title>#224 lightgbm_ft_0006: 0.1850 (discard)</title></circle>
<circle class="fail" cx="980.64" cy="96.12" r="3.2"><title>#225 lightgbm_ex_0007: 0.1884 (discard)</title></circle>
<circle class="fail" cx="984.67" cy="96.99" r="3.2"><title>#226 lightgbm_ex_0008: 0.1881 (discard)</title></circle>
<circle class="fail" cx="988.70" cy="93.80" r="3.2"><title>#227 lightgbm_ps_0009: 0.1892 (discard)</title></circle>
<circle class="fail" cx="992.73" cy="104.23" r="3.2"><title>#228 lightgbm_ft_0010: 0.1856 (discard)</title></circle>
<circle class="fail" cx="996.76" cy="96.99" r="3.2"><title>#229 lightgbm_ft_0011: 0.1881 (discard)</title></circle>
<circle class="fail" cx="1004.81" cy="114.37" r="3.2"><title>#231 lightgbm_ft_0013: 0.1821 (discard)</title></circle>
<circle class="fail" cx="1008.84" cy="96.70" r="3.2"><title>#232 lightgbm_ft_0014: 0.1882 (discard)</title></circle>
<circle class="fail" cx="1012.87" cy="98.15" r="3.2"><title>#233 lightgbm_ft_0015: 0.1877 (discard)</title></circle>
<circle class="fail" cx="1020.93" cy="101.91" r="3.2"><title>#235 lightgbm_ex_0017: 0.1864 (discard)</title></circle>
<circle class="fail" cx="1033.02" cy="104.23" r="3.2"><title>#238 lightgbm_ps_0020: 0.1856 (discard)</title></circle>
<circle class="fail" cx="1041.08" cy="105.10" r="3.2"><title>#240 lightgbm_ex_0002: 0.1853 (discard)</title></circle>
<circle class="fail" cx="1045.11" cy="101.62" r="3.2"><title>#241 lightgbm_ps_0003: 0.1865 (discard)</title></circle>
<circle class="fail" cx="1049.14" cy="110.03" r="3.2"><title>#242 lightgbm_ft_0004: 0.1836 (discard)</title></circle>
<circle class="fail" cx="1053.17" cy="102.20" r="3.2"><title>#243 lightgbm_ex_0005: 0.1863 (discard)</title></circle>
<circle class="fail" cx="1057.20" cy="111.19" r="3.2"><title>#244 lightgbm_ft_0006: 0.1832 (discard)</title></circle>
<circle class="fail" cx="1061.23" cy="109.74" r="3.2"><title>#245 lightgbm_ft_0007: 0.1837 (discard)</title></circle>
<circle class="fail" cx="1065.26" cy="96.70" r="3.2"><title>#246 lightgbm_ps_0008: 0.1882 (discard)</title></circle>
<circle class="fail" cx="1069.29" cy="107.42" r="3.2"><title>#247 lightgbm_ft_0009: 0.1845 (discard)</title></circle>
<circle class="fail" cx="1073.32" cy="107.71" r="3.2"><title>#248 lightgbm_ft_0010: 0.1844 (discard)</title></circle>
<circle class="fail" cx="1077.35" cy="98.15" r="3.2"><title>#249 lightgbm_ft_0011: 0.1877 (discard)</title></circle>
<circle class="fail" cx="1081.38" cy="105.39" r="3.2"><title>#250 lightgbm_ft_0012: 0.1852 (discard)</title></circle>
<circle class="fail" cx="1085.41" cy="102.49" r="3.2"><title>#251 lightgbm_ft_0013: 0.1862 (discard)</title></circle>
<circle class="fail" cx="1089.44" cy="107.42" r="3.2"><title>#252 lightgbm_ps_0014: 0.1845 (discard)</title></circle>
<circle class="fail" cx="1093.47" cy="103.07" r="3.2"><title>#253 lightgbm_ft_0015: 0.1860 (discard)</title></circle>
<circle class="fail" cx="1097.50" cy="107.13" r="3.2"><title>#254 lightgbm_ft_0016: 0.1846 (discard)</title></circle>
<circle class="fail" cx="1101.53" cy="101.33" r="3.2"><title>#255 lightgbm_ex_0017: 0.1866 (discard)</title></circle>
<circle class="fail" cx="1105.56" cy="103.07" r="3.2"><title>#256 lightgbm_ft_0018: 0.1860 (discard)</title></circle>
<circle class="fail" cx="1109.59" cy="110.61" r="3.2"><title>#257 lightgbm_ps_0019: 0.1834 (discard)</title></circle>
<circle class="fail" cx="1113.61" cy="95.25" r="3.2"><title>#258 lightgbm_ft_0020: 0.1887 (discard)</title></circle>
<circle class="fail" cx="1117.64" cy="103.36" r="3.2"><title>#259 lightgbm_ft_0021: 0.1859 (discard)</title></circle>
<circle class="fail" cx="1121.67" cy="96.70" r="3.2"><title>#260 lightgbm_ft_0022: 0.1882 (discard)</title></circle>
<circle class="fail" cx="1125.70" cy="99.89" r="3.2"><title>#261 lightgbm_ft_0023: 0.1871 (discard)</title></circle>
<circle class="fail" cx="1129.73" cy="102.78" r="3.2"><title>#262 lightgbm_ex_0024: 0.1861 (discard)</title></circle>
<circle class="fail" cx="1133.76" cy="104.52" r="3.2"><title>#263 lightgbm_ft_0025: 0.1855 (discard)</title></circle>
<circle class="fail" cx="1137.79" cy="110.61" r="3.2"><title>#264 lightgbm_ft_0026: 0.1834 (discard)</title></circle>
<circle class="fail" cx="1141.82" cy="98.44" r="3.2"><title>#265 lightgbm_ex_0027: 0.1876 (discard)</title></circle>
<circle class="fail" cx="1145.85" cy="97.28" r="3.2"><title>#266 lightgbm_ex_0028: 0.1880 (discard)</title></circle>
<circle class="fail" cx="1149.88" cy="96.99" r="3.2"><title>#267 lightgbm_ft_0029: 0.1881 (discard)</title></circle>
<circle class="fail" cx="1153.91" cy="106.55" r="3.2"><title>#268 lightgbm_ft_0030: 0.1848 (discard)</title></circle>
<circle class="fail" cx="1157.94" cy="110.90" r="3.2"><title>#269 lightgbm_ft_0031: 0.1833 (discard)</title></circle>
<circle class="fail" cx="1161.97" cy="103.94" r="3.2"><title>#270 lightgbm_ex_0032: 0.1857 (discard)</title></circle>
<circle class="fail" cx="1166.00" cy="107.13" r="3.2"><title>#271 lightgbm_ex_0033: 0.1846 (discard)</title></circle>
<circle class="keep" cx="78.00" cy="154.07" r="4.0"><title>#1 baseline_enhanced_glm_splines: 0.1684 (keep)</title></circle>
<circle class="keep" cx="94.12" cy="112.63" r="4.0"><title>#5 lightgbm_regularized_challenger: 0.1827 (keep)</title></circle>
<circle class="keep" cx="267.39" cy="107.42" r="4.0"><title>#48 lightgbm_best_plus_learning_rate: 0.1845 (keep)</title></circle>
<circle class="keep" cx="271.42" cy="105.68" r="4.0"><title>#49 lightgbm_slightly_more_aggressive: 0.1851 (keep)</title></circle>
<circle class="keep" cx="279.48" cy="112.06" r="4.0"><title>#51 lightgbm_flexible_severity: 0.1829 (keep)</title></circle>
<circle class="keep" cx="283.51" cy="109.74" r="4.0"><title>#52 lightgbm_lower_lr_more_iter: 0.1837 (keep)</title></circle>
<circle class="keep" cx="287.54" cy="114.66" r="4.0"><title>#53 lightgbm_slightly_more_aggressive: 0.1820 (keep)</title></circle>
<circle class="keep" cx="291.57" cy="114.66" r="4.0"><title>#54 lightgbm_best_variant: 0.1820 (keep)</title></circle>
<circle class="keep" cx="295.60" cy="109.45" r="4.0"><title>#55 lightgbm_boosting_rounds: 0.1838 (keep)</title></circle>
<circle class="keep" cx="303.66" cy="105.68" r="4.0"><title>#57 lightgbm_tweedie_direct: 0.1851 (keep)</title></circle>
<circle class="keep" cx="335.90" cy="110.03" r="4.0"><title>#65 lightgbm_aggressive_lr: 0.1836 (keep)</title></circle>
<circle class="keep" cx="339.93" cy="113.79" r="4.0"><title>#66 lightgbm_optimal_balance_v2: 0.1823 (keep)</title></circle>
<circle class="keep" cx="343.96" cy="110.61" r="4.0"><title>#67 lightgbm_optimal_exploration: 0.1834 (keep)</title></circle>
<circle class="keep" cx="352.01" cy="105.39" r="4.0"><title>#69 lightgbm_varying_gamma: 0.1852 (keep)</title></circle>
<circle class="keep" cx="364.10" cy="115.53" r="4.0"><title>#72 lightgbm_extreme_bagging: 0.1817 (keep)</title></circle>
<circle class="keep" cx="368.13" cy="109.45" r="4.0"><title>#73 lightgbm_very_high_lr: 0.1838 (keep)</title></circle>
<circle class="keep" cx="372.16" cy="108.00" r="4.0"><title>#74 lightgbm_mid_high_lr: 0.1843 (keep)</title></circle>
<circle class="keep" cx="380.22" cy="109.45" r="4.0"><title>#76 lightgbm_17_25_explore: 0.1838 (keep)</title></circle>
<circle class="keep" cx="388.28" cy="114.08" r="4.0"><title>#78 lightgbm_13_21_balanced: 0.1822 (keep)</title></circle>
<circle class="keep" cx="392.31" cy="112.35" r="4.0"><title>#79 lightgbm_14_23_med_lr: 0.1828 (keep)</title></circle>
<circle class="keep" cx="412.46" cy="107.42" r="4.0"><title>#84 lightgbm_deep_diversity: 0.1845 (keep)</title></circle>
<circle class="keep" cx="416.49" cy="104.52" r="4.0"><title>#85 lightgbm_extreme_random: 0.1855 (keep)</title></circle>
<circle class="keep" cx="420.52" cy="99.02" r="4.0"><title>#86 lightgbm_extreme_variant: 0.1874 (keep)</title></circle>
<circle class="keep" cx="432.61" cy="101.91" r="4.0"><title>#89 lightgbm_extreme_v2: 0.1864 (keep)</title></circle>
<circle class="keep" cx="436.64" cy="92.35" r="4.0"><title>#90 lightgbm_diverse_sweet: 0.1897 (keep)</title></circle>
<circle class="keep" cx="456.79" cy="91.48" r="4.0"><title>#95 lightgbm_diverse_closer: 0.1900 (keep)</title></circle>
<circle class="keep" cx="472.90" cy="101.91" r="4.0"><title>#99 lightgbm_191_v2: 0.1864 (keep)</title></circle>
<circle class="keep" cx="476.93" cy="89.17" r="4.0"><title>#100 lightgbm_191_exact: 0.1908 (keep)</title></circle>
<circle class="keep" cx="489.02" cy="92.93" r="4.0"><title>#103 lightgbm_191_mid: 0.1895 (keep)</title></circle>
<circle class="keep" cx="493.05" cy="106.26" r="4.0"><title>#104 lightgbm_191_17_leaves: 0.1849 (keep)</title></circle>
<circle class="keep" cx="501.11" cy="97.28" r="4.0"><title>#106 lightgbm_191_slide: 0.1880 (keep)</title></circle>
<circle class="keep" cx="513.20" cy="88.88" r="4.0"><title>#109 lightgbm_191_exact_v2: 0.1909 (keep)</title></circle>
<circle class="keep" cx="642.15" cy="100.47" r="4.0"><title>#141 lightgbm_ex_0014: 0.1869 (keep)</title></circle>
<circle class="keep" cx="650.21" cy="98.73" r="4.0"><title>#143 lightgbm_ex_0016: 0.1875 (keep)</title></circle>
<circle class="keep" cx="654.24" cy="101.33" r="4.0"><title>#144 lightgbm_ex_0017: 0.1866 (keep)</title></circle>
<circle class="keep" cx="682.44" cy="101.91" r="4.0"><title>#151 lightgbm_ft_0004: 0.1864 (keep)</title></circle>
<circle class="keep" cx="686.47" cy="103.07" r="4.0"><title>#152 lightgbm_ft_0005: 0.1860 (keep)</title></circle>
<circle class="keep" cx="690.50" cy="102.78" r="4.0"><title>#153 lightgbm_ft_0006: 0.1861 (keep)</title></circle>
<circle class="keep" cx="698.56" cy="106.26" r="4.0"><title>#155 lightgbm_ft_0008: 0.1849 (keep)</title></circle>
<circle class="keep" cx="702.59" cy="103.07" r="4.0"><title>#156 lightgbm_ex_0009: 0.1860 (keep)</title></circle>
<circle class="keep" cx="710.65" cy="104.81" r="4.0"><title>#158 lightgbm_ex_0011: 0.1854 (keep)</title></circle>
<circle class="keep" cx="718.71" cy="108.58" r="4.0"><title>#160 lightgbm_ft_0001: 0.1841 (keep)</title></circle>
<circle class="keep" cx="730.80" cy="110.90" r="4.0"><title>#163 lightgbm_ft_0002: 0.1833 (keep)</title></circle>
<circle class="keep" cx="734.83" cy="107.71" r="4.0"><title>#164 lightgbm_ft_0003: 0.1844 (keep)</title></circle>
<circle class="keep" cx="750.95" cy="107.13" r="4.0"><title>#168 lightgbm_ft_0007: 0.1846 (keep)</title></circle>
<circle class="keep" cx="754.98" cy="92.35" r="4.0"><title>#169 lightgbm_ft_0008: 0.1897 (keep)</title></circle>
<circle class="keep" cx="771.10" cy="98.73" r="4.0"><title>#173 lightgbm_ft_0002: 0.1875 (keep)</title></circle>
<circle class="keep" cx="783.19" cy="105.10" r="4.0"><title>#176 lightgbm_ft_0005: 0.1853 (keep)</title></circle>
<circle class="keep" cx="787.21" cy="105.10" r="4.0"><title>#177 lightgbm_ex_0006: 0.1853 (keep)</title></circle>
<circle class="keep" cx="791.24" cy="88.88" r="4.0"><title>#178 lightgbm_restart: 0.1909 (keep)</title></circle>
<circle class="keep" cx="823.48" cy="101.62" r="4.0"><title>#186 lightgbm_fine_tune_0008: 0.1865 (keep)</title></circle>
<circle class="keep" cx="835.57" cy="95.83" r="4.0"><title>#189 lightgbm_explore_0011: 0.1885 (keep)</title></circle>
<circle class="keep" cx="843.63" cy="99.31" r="4.0"><title>#191 lightgbm_fine_tune_0013: 0.1873 (keep)</title></circle>
<circle class="keep" cx="847.66" cy="100.76" r="4.0"><title>#192 lightgbm_explore_0014: 0.1868 (keep)</title></circle>
<circle class="keep" cx="855.72" cy="103.94" r="4.0"><title>#194 lightgbm_fine_tune_0016: 0.1857 (keep)</title></circle>
<circle class="keep" cx="859.75" cy="98.15" r="4.0"><title>#195 lightgbm_fine_tune_0017: 0.1877 (keep)</title></circle>
<circle class="keep" cx="863.78" cy="95.25" r="4.0"><title>#196 lightgbm_fine_tune_0018: 0.1887 (keep)</title></circle>
<circle class="keep" cx="867.81" cy="106.55" r="4.0"><title>#197 lightgbm_fine_tune_0019: 0.1848 (keep)</title></circle>
<circle class="keep" cx="871.84" cy="98.15" r="4.0"><title>#198 lightgbm_fine_tune_0001: 0.1877 (keep)</title></circle>
<circle class="keep" cx="875.87" cy="103.07" r="4.0"><title>#199 lightgbm_fine_tune_0002: 0.1860 (keep)</title></circle>
<circle class="keep" cx="879.90" cy="105.39" r="4.0"><title>#200 lightgbm_fine_tune_0003: 0.1852 (keep)</title></circle>
<circle class="keep" cx="883.93" cy="99.02" r="4.0"><title>#201 lightgbm_explore_0004: 0.1874 (keep)</title></circle>
<circle class="keep" cx="887.96" cy="92.64" r="4.0"><title>#202 lightgbm_fine_tune_0005: 0.1896 (keep)</title></circle>
<circle class="keep" cx="896.01" cy="100.76" r="4.0"><title>#204 lightgbm_fine_tune_0007: 0.1868 (keep)</title></circle>
<circle class="keep" cx="900.04" cy="103.36" r="4.0"><title>#205 lightgbm_fine_tune_0008: 0.1859 (keep)</title></circle>
<circle class="keep" cx="904.07" cy="103.65" r="4.0"><title>#206 lightgbm_fine_tune_0009: 0.1858 (keep)</title></circle>
<circle class="keep" cx="912.13" cy="107.71" r="4.0"><title>#208 lightgbm_fine_tune_0011: 0.1844 (keep)</title></circle>
<circle class="keep" cx="916.16" cy="102.49" r="4.0"><title>#209 lightgbm_fine_tune_0012: 0.1862 (keep)</title></circle>
<circle class="keep" cx="920.19" cy="94.09" r="4.0"><title>#210 lightgbm_fine_tune_0013: 0.1891 (keep)</title></circle>
<circle class="keep" cx="928.25" cy="104.23" r="4.0"><title>#212 lightgbm_fine_tune_0015: 0.1856 (keep)</title></circle>
<circle class="keep" cx="932.28" cy="102.20" r="4.0"><title>#213 lightgbm_fine_tune_0016: 0.1863 (keep)</title></circle>
<circle class="keep" cx="952.43" cy="88.88" r="4.0"><title>#218 lightgbm_best_191: 0.1909 (keep)</title></circle>
<circle class="keep" cx="1000.79" cy="95.25" r="4.0"><title>#230 lightgbm_ex_0012: 0.1887 (keep)</title></circle>
<circle class="keep" cx="1016.90" cy="97.86" r="4.0"><title>#234 lightgbm_ex_0016: 0.1878 (keep)</title></circle>
<circle class="keep" cx="1024.96" cy="111.19" r="4.0"><title>#236 lightgbm_ft_0018: 0.1832 (keep)</title></circle>
<circle class="keep" cx="1028.99" cy="103.07" r="4.0"><title>#237 lightgbm_ft_0019: 0.1860 (keep)</title></circle>
<circle class="keep" cx="1037.05" cy="101.62" r="4.0"><title>#239 lightgbm_ft_0001: 0.1865 (keep)</title></circle>
<circle class="best" cx="549.47" cy="88.30" r="5.5"><title>Best #118 lightgbm_0001_autotune: 0.1911</title></circle>
<rect x="955" y="62" width="210" height="72" rx="6" fill="#ffffff" stroke="#d8dee5"/>
<circle class="keep" cx="973" cy="84" r="4"/><text x="987" y="88" font-size="13">Successful / keep (77)</text>
<circle class="fail" cx="973" cy="112" r="4"/><text x="987" y="116" font-size="13">Failed / discard/crash (194)</text>
</svg>