<svg xmlns="http://www.w3.org/2000/svg" width="1200" height="720" viewBox="0 0 1200 720">
<rect width="100%" height="100%" fill="#ffffff"/>
<style>text{font-family:Arial,Helvetica,sans-serif;fill:#1f2933}.axis{stroke:#2f3a45;stroke-width:1.2}.grid{stroke:#d8dee5;stroke-width:1}.fail{fill:#c9d1d9;fill-opacity:.72}.keep{fill:#111827;fill-opacity:.92}.best{fill:#0f172a;stroke:#ffffff;stroke-width:1.5}.run{fill:none;stroke:#2563eb;stroke-width:2;stroke-opacity:.85}</style>
<text x="78" y="27" font-size="22" font-weight="700">Segmentation: Capped Pure Premium Gini</text>
<text x="78" y="51" font-size="13">Higher is better; dark dots passed segmentation gates | 270 plotted experiments | dark = accepted for this chart | light = not accepted | blue = running best</text>
<line class="grid" x1="78" y1="642.00" x2="1166" y2="642.00"/>
<text x="66" y="646.00" font-size="12" text-anchor="end">0.160</text>
<line class="grid" x1="78" y1="567.25" x2="1166" y2="567.25"/>
<text x="66" y="571.25" font-size="12" text-anchor="end">0.165</text>
<line class="grid" x1="78" y1="492.50" x2="1166" y2="492.50"/>
<text x="66" y="496.50" font-size="12" text-anchor="end">0.170</text>
<line class="grid" x1="78" y1="417.75" x2="1166" y2="417.75"/>
<text x="66" y="421.75" font-size="12" text-anchor="end">0.175</text>
<line class="grid" x1="78" y1="343.00" x2="1166" y2="343.00"/>
<text x="66" y="347.00" font-size="12" text-anchor="end">0.180</text>
<line class="grid" x1="78" y1="268.25" x2="1166" y2="268.25"/>
<text x="66" y="272.25" font-size="12" text-anchor="end">0.185</text>
<line class="grid" x1="78" y1="193.50" x2="1166" y2="193.50"/>
<text x="66" y="197.50" font-size="12" text-anchor="end">0.190</text>
<line class="grid" x1="78" y1="118.75" x2="1166" y2="118.75"/>
<text x="66" y="122.75" font-size="12" text-anchor="end">0.195</text>
<line class="grid" x1="78" y1="44.00" x2="1166" y2="44.00"/>
<text x="66" y="48.00" font-size="12" text-anchor="end">0.200</text>
<line class="grid" x1="78.00" y1="44" x2="78.00" y2="642"/>
<text x="78.00" y="666" font-size="12" text-anchor="middle">1</text>
<line class="grid" x1="295.60" y1="44" x2="295.60" y2="642"/>
<text x="295.60" y="666" font-size="12" text-anchor="middle">55</text>
<line class="grid" x1="513.20" y1="44" x2="513.20" y2="642"/>
<text x="513.20" y="666" font-size="12" text-anchor="middle">109</text>
<line class="grid" x1="730.80" y1="44" x2="730.80" y2="642"/>
<text x="730.80" y="666" font-size="12" text-anchor="middle">163</text>
<line class="grid" x1="948.40" y1="44" x2="948.40" y2="642"/>
<text x="948.40" y="666" font-size="12" text-anchor="middle">217</text>
<line class="grid" x1="1166.00" y1="44" x2="1166.00" y2="642"/>
<text x="1166.00" y="666" font-size="12" text-anchor="middle">271</text>
<path class="run" d="M78.00,516.42 L82.03,516.42 L86.06,516.42 L90.09,516.42 L94.12,302.64 L98.15,302.64 L102.18,284.70 L106.21,259.28 L110.24,259.28 L114.27,259.28 L118.30,259.28 L122.33,259.28 L126.36,259.28 L130.39,259.28 L134.41,259.28 L138.44,259.28 L142.47,259.28 L146.50,259.28 L150.53,247.32 L154.56,230.88 L158.59,230.88 L162.62,230.88 L166.65,230.88 L170.68,230.88 L174.71,230.88 L178.74,230.88 L182.77,230.88 L186.80,230.88 L190.83,230.88 L194.86,230.88 L198.89,230.88 L202.92,230.88 L206.95,230.88 L210.98,230.88 L215.01,230.88 L219.04,230.88 L223.07,230.88 L227.10,230.88 L231.13,230.88 L235.16,230.88 L239.19,230.88 L243.21,230.88 L247.24,230.88 L251.27,230.88 L255.30,230.88 L259.33,230.88 L263.36,230.88 L267.39,230.88 L271.42,230.88 L275.45,230.88 L279.48,230.88 L283.51,230.88 L287.54,230.88 L291.57,230.88 L295.60,230.88 L299.63,230.88 L303.66,230.88 L307.69,230.88 L311.72,230.88 L315.75,230.88 L319.78,230.88 L323.81,230.88 L327.84,230.88 L331.87,230.88 L335.90,230.88 L339.93,230.88 L343.96,230.88 L347.99,230.88 L352.01,230.88 L356.04,230.88 L360.07,230.88 L364.10,230.88 L368.13,230.88 L372.16,230.88 L376.19,230.88 L380.22,230.88 L384.25,230.88 L388.28,230.88 L392.31,230.88 L396.34,230.88 L400.37,230.88 L404.40,230.88 L408.43,230.88 L412.46,230.88 L416.49,230.88 L420.52,230.88 L424.55,230.88 L428.58,230.88 L432.61,230.88 L436.64,197.99 L440.67,197.99 L444.70,197.99 L448.73,197.99 L452.76,197.99 L456.79,193.50 L460.81,193.50 L464.84,181.54 L468.87,181.54 L472.90,181.54 L476.93,181.54 L480.96,181.54 L484.99,181.54 L489.02,181.54 L493.05,181.54 L497.08,181.54 L501.11,181.54 L505.14,181.54 L509.17,181.54 L513.20,180.05 L517.23,180.05 L521.26,178.55 L525.29,178.55 L529.32,178.55 L533.35,178.55 L537.38,178.55 L541.41,178.55 L545.44,178.55 L549.47,177.06 L553.50,177.06 L557.53,177.06 L561.56,177.06 L565.59,177.06 L569.61,177.06 L573.64,177.06 L577.67,177.06 L581.70,177.06 L585.73,177.06 L589.76,177.06 L593.79,177.06 L597.82,177.06 L601.85,177.06 L605.88,177.06 L609.91,177.06 L613.94,177.06 L617.97,177.06 L622.00,177.06 L626.03,177.06 L630.06,177.06 L634.09,177.06 L638.12,177.06 L642.15,177.06 L646.18,177.06 L650.21,177.06 L654.24,177.06 L658.27,177.06 L662.30,177.06 L666.33,177.06 L670.36,177.06 L674.39,177.06 L678.41,177.06 L682.44,177.06 L686.47,177.06 L690.50,177.06 L694.53,177.06 L698.56,177.06 L702.59,177.06 L706.62,177.06 L710.65,177.06 L714.68,177.06 L718.71,177.06 L722.74,177.06 L726.77,177.06 L730.80,177.06 L734.83,177.06 L738.86,177.06 L742.89,177.06 L746.92,177.06 L750.95,177.06 L754.98,177.06 L759.01,177.06 L763.04,177.06 L767.07,177.06 L771.10,177.06 L775.13,177.06 L779.16,177.06 L783.19,177.06 L787.21,177.06 L791.24,177.06 L795.27,177.06 L799.30,177.06 L803.33,177.06 L807.36,177.06 L811.39,177.06 L815.42,177.06 L819.45,177.06 L823.48,177.06 L827.51,177.06 L831.54,177.06 L835.57,177.06 L839.60,177.06 L843.63,177.06 L847.66,177.06 L851.69,177.06 L855.72,177.06 L859.75,177.06 L863.78,177.06 L867.81,177.06 L871.84,177.06 L875.87,177.06 L879.90,177.06 L883.93,177.06 L887.96,177.06 L891.99,177.06 L896.01,177.06 L900.04,177.06 L904.07,177.06 L908.10,177.06 L912.13,177.06 L916.16,177.06 L920.19,177.06 L924.22,177.06 L928.25,177.06 L932.28,177.06 L936.31,177.06 L940.34,177.06 L944.37,177.06 L948.40,177.06 L952.43,177.06 L956.46,177.06 L960.49,177.06 L964.52,177.06 L968.55,177.06 L972.58,177.06 L976.61,177.06 L980.64,177.06 L984.67,177.06 L988.70,177.06 L992.73,177.06 L996.76,177.06 L1000.79,177.06 L1004.81,177.06 L1008.84,177.06 L1012.87,177.06 L1016.90,177.06 L1020.93,177.06 L1024.96,177.06 L1028.99,177.06 L1033.02,177.06 L1037.05,177.06 L1041.08,177.06 L1045.11,177.06 L1049.14,177.06 L1053.17,177.06 L1057.20,177.06 L1061.23,177.06 L1065.26,177.06 L1069.29,177.06 L1073.32,177.06 L1077.35,177.06 L1081.38,177.06 L1085.41,177.06 L1089.44,177.06 L1093.47,177.06 L1097.50,177.06 L1101.53,177.06 L1105.56,177.06 L1109.59,177.06 L1113.61,177.06 L1117.64,177.06 L1121.67,177.06 L1125.70,177.06 L1129.73,177.06 L1133.76,177.06 L1137.79,177.06 L1141.82,177.06 L1145.85,177.06 L1149.88,177.06 L1153.91,177.06 L1157.94,177.06 L1161.97,177.06 L1166.00,177.06"/>
<circle class="fail" cx="78.00" cy="516.42" r="3.2"><title>#1 baseline_enhanced_glm_splines: 0.1684</title></circle>
<circle class="fail" cx="82.03" cy="543.33" r="3.2"><title>#2 enhanced_glm_component_scalars: 0.1666</title></circle>
<circle class="fail" cx="86.06" cy="535.86" r="3.2"><title>#3 enhanced_glm_driver_car_age_interaction: 0.1671</title></circle>
<circle class="fail" cx="90.09" cy="538.85" r="3.2"><title>#4 enhanced_glm_power_brand_frequency: 0.1669</title></circle>
<circle class="fail" cx="98.15" cy="304.13" r="3.2"><title>#6 lightgbm_deeper_frequency_capped: 0.1826</title></circle>
<circle class="fail" cx="102.18" cy="284.70" r="3.2"><title>#7 lightgbm_flexible_capped_severity: 0.1839</title></circle>
<circle class="fail" cx="106.21" cy="259.28" r="3.2"><title>#8 lightgbm_aggressive_capped_severity: 0.1856</title></circle>
<circle class="fail" cx="110.24" cy="555.29" r="3.2"><title>#9 enhanced_glm_region_density_frequency: 0.1658</title></circle>
<circle class="fail" cx="118.30" cy="642.00" r="3.2"><title>#11 enhanced_glm_driver_car_age_capped_severity: 0.1581</title></circle>
<circle class="fail" cx="122.33" cy="510.44" r="3.2"><title>#12 enhanced_glm_power_brand_capped_severity: 0.1688</title></circle>
<circle class="fail" cx="126.36" cy="313.10" r="3.2"><title>#13 lightgbm_expanded_regularized_grid: 0.1820</title></circle>
<circle class="fail" cx="130.39" cy="532.87" r="3.2"><title>#14 enhanced_glm_power_brand_frequency_capped: 0.1673</title></circle>
<circle class="fail" cx="134.41" cy="302.64" r="3.2"><title>#15 lightgbm_frequency_ranking_push: 0.1827</title></circle>
<circle class="fail" cx="138.44" cy="331.04" r="3.2"><title>#16 lightgbm_moderate_capped_severity_push: 0.1808</title></circle>
<circle class="fail" cx="142.47" cy="272.74" r="3.2"><title>#17 lightgbm_midleaf_frequency_probe: 0.1847</title></circle>
<circle class="fail" cx="146.50" cy="272.74" r="3.2"><title>#18 lightgbm_midleaf_frequency_mild_capped: 0.1847</title></circle>
<circle class="fail" cx="150.53" cy="247.32" r="3.2"><title>#19 lightgbm_midleaf_frequency_forced_aggressive_capped: 0.1864</title></circle>
<circle class="fail" cx="154.56" cy="230.88" r="3.2"><title>#20 lightgbm_midleaf_frequency_stronger_capped: 0.1875</title></circle>
<circle class="fail" cx="158.59" cy="275.73" r="3.2"><title>#21 lightgbm_midleaf_frequency_edge_capped: 0.1845</title></circle>
<circle class="fail" cx="162.62" cy="254.79" r="3.2"><title>#22 lightgbm_tuned_midleaf_stronger_capped: 0.1859</title></circle>
<circle class="fail" cx="166.65" cy="529.88" r="3.2"><title>#23 enhanced_glm_power_brand_capped_calibrated: 0.1675</title></circle>
<circle class="fail" cx="170.68" cy="316.09" r="3.2"><title>#24 lightgbm_midleaf_frequency_restrained_severity: 0.1818</title></circle>
<circle class="fail" cx="174.71" cy="510.44" r="3.2"><title>#25 enhanced_glm_power_brand_dual_severity: 0.1688</title></circle>
<circle class="fail" cx="178.74" cy="301.14" r="3.2"><title>#26 lightgbm_longer_midleaf_stronger_capped: 0.1828</title></circle>
<circle class="fail" cx="182.77" cy="525.39" r="3.2"><title>#27 enhanced_glm_agefreq_powerbrand_dual_severity: 0.1678</title></circle>
<circle class="fail" cx="186.80" cy="516.42" r="3.2"><title>#28 enhanced_glm_power_brand_raw_severity: 0.1684</title></circle>
<circle class="fail" cx="190.83" cy="272.74" r="3.2"><title>#29 lightgbm_shorter_midleaf_stronger_capped: 0.1847</title></circle>
<circle class="fail" cx="194.86" cy="642.00" r="3.2"><title>#30 simple_glm_power_brand_capped_severity: 0.1366</title></circle>
<circle class="fail" cx="198.89" cy="230.88" r="3.2"><title>#31 lightgbm_midleaf_stronger_capped_raw_severity_push: 0.1875</title></circle>
<circle class="fail" cx="202.92" cy="580.71" r="3.2"><title>#32 glm_aggressive_full_enhanced: 0.1641</title></circle>
<circle class="fail" cx="206.95" cy="360.94" r="3.2"><title>#33 lightgbm_ultra_regularized: 0.1788</title></circle>
<circle class="fail" cx="210.98" cy="281.70" r="3.2"><title>#34 lightgbm_tuned_aggressive_regularized: 0.1841</title></circle>
<circle class="fail" cx="215.01" cy="316.09" r="3.2"><title>#35 lightgbm_frequency_focused: 0.1818</title></circle>
<circle class="fail" cx="219.04" cy="516.42" r="3.2"><title>#36 glm_baseline_plus_spline_degrees: 0.1684</title></circle>
<circle class="fail" cx="223.07" cy="302.64" r="3.2"><title>#37 lightgbm_regularized_challenger: 0.1827</title></circle>
<circle class="fail" cx="227.10" cy="317.59" r="3.2"><title>#38 lightgbm_deeper_boosting: 0.1817</title></circle>
<circle class="fail" cx="231.13" cy="275.73" r="3.2"><title>#39 lightgbm_best_plus_learning_rate: 0.1845</title></circle>
<circle class="fail" cx="235.16" cy="308.62" r="3.2"><title>#40 lightgbm_aggressive_bagging: 0.1823</title></circle>
<circle class="fail" cx="239.19" cy="343.00" r="3.2"><title>#41 lightgbm_blend_best_params: 0.1800</title></circle>
<circle class="fail" cx="243.21" cy="354.96" r="3.2"><title>#42 lightgbm_less_regularized: 0.1792</title></circle>
<circle class="fail" cx="247.24" cy="302.64" r="3.2"><title>#43 lightgbm_regularized_challenger: 0.1827</title></circle>
<circle class="fail" cx="251.27" cy="298.15" r="3.2"><title>#44 lightgbm_best_plus_min_data: 0.1830</title></circle>
<circle class="fail" cx="255.30" cy="280.21" r="3.2"><title>#45 lightgbm_frequency_deeper: 0.1842</title></circle>
<circle class="fail" cx="259.33" cy="281.70" r="3.2"><title>#46 lightgbm_frequency_16_20: 0.1841</title></circle>
<circle class="fail" cx="263.36" cy="275.73" r="3.2"><title>#47 lightgbm_best_plus_learning_rate: 0.1845</title></circle>
<circle class="fail" cx="267.39" cy="275.73" r="3.2"><title>#48 lightgbm_best_plus_learning_rate: 0.1845</title></circle>
<circle class="fail" cx="271.42" cy="266.76" r="3.2"><title>#49 lightgbm_slightly_more_aggressive: 0.1851</title></circle>
<circle class="fail" cx="275.45" cy="292.17" r="3.2"><title>#50 lightgbm_even_more_leaves: 0.1834</title></circle>
<circle class="fail" cx="279.48" cy="299.65" r="3.2"><title>#51 lightgbm_flexible_severity: 0.1829</title></circle>
<circle class="fail" cx="283.51" cy="287.69" r="3.2"><title>#52 lightgbm_lower_lr_more_iter: 0.1837</title></circle>
<circle class="fail" cx="287.54" cy="313.10" r="3.2"><title>#53 lightgbm_slightly_more_aggressive: 0.1820</title></circle>
<circle class="fail" cx="291.57" cy="313.10" r="3.2"><title>#54 lightgbm_best_variant: 0.1820</title></circle>
<circle class="fail" cx="295.60" cy="286.19" r="3.2"><title>#55 lightgbm_boosting_rounds: 0.1838</title></circle>
<circle class="fail" cx="299.63" cy="271.24" r="3.2"><title>#56 lightgbm_optimal_balance: 0.1848</title></circle>
<circle class="fail" cx="303.66" cy="266.76" r="3.2"><title>#57 lightgbm_tweedie_direct: 0.1851</title></circle>
<circle class="fail" cx="307.69" cy="266.76" r="3.2"><title>#58 lightgbm_class_weight: 0.1851</title></circle>
<circle class="fail" cx="311.72" cy="266.76" r="3.2"><title>#59 lightgbm_huber_loss: 0.1851</title></circle>
<circle class="fail" cx="315.75" cy="266.76" r="3.2"><title>#60 lightgbm_dart_booster: 0.1851</title></circle>
<circle class="fail" cx="319.78" cy="277.22" r="3.2"><title>#61 lightgbm_higher_early_stop: 0.1844</title></circle>
<circle class="fail" cx="323.81" cy="250.31" r="3.2"><title>#62 lightgbm_best_seed_avg: 0.1862</title></circle>
<circle class="fail" cx="327.84" cy="272.74" r="3.2"><title>#63 lightgbm_smoother_more_reg: 0.1847</title></circle>
<circle class="fail" cx="331.87" cy="299.65" r="3.2"><title>#64 lightgbm_fewer_leaves_better: 0.1829</title></circle>
<circle class="fail" cx="335.90" cy="289.18" r="3.2"><title>#65 lightgbm_aggressive_lr: 0.1836</title></circle>
<circle class="fail" cx="339.93" cy="308.62" r="3.2"><title>#66 lightgbm_optimal_balance_v2: 0.1823</title></circle>
<circle class="fail" cx="343.96" cy="292.17" r="3.2"><title>#67 lightgbm_optimal_exploration: 0.1834</title></circle>
<circle class="fail" cx="347.99" cy="338.52" r="3.2"><title>#68 lightgbm_deeper_less_reg: 0.1803</title></circle>
<circle class="fail" cx="352.01" cy="265.26" r="3.2"><title>#69 lightgbm_varying_gamma: 0.1852</title></circle>
<circle class="fail" cx="356.04" cy="296.65" r="3.2"><title>#70 lightgbm_mid_leaves_mid_reg: 0.1831</title></circle>
<circle class="fail" cx="360.07" cy="319.08" r="3.2"><title>#71 lightgbm_compact_search: 0.1816</title></circle>
<circle class="fail" cx="364.10" cy="317.59" r="3.2"><title>#72 lightgbm_extreme_bagging: 0.1817</title></circle>
<circle class="fail" cx="368.13" cy="286.19" r="3.2"><title>#73 lightgbm_very_high_lr: 0.1838</title></circle>
<circle class="fail" cx="372.16" cy="278.72" r="3.2"><title>#74 lightgbm_mid_high_lr: 0.1843</title></circle>
<circle class="fail" cx="376.19" cy="299.65" r="3.2"><title>#75 lightgbm_exact_best_plus: 0.1829</title></circle>
<circle class="fail" cx="380.22" cy="286.19" r="3.2"><title>#76 lightgbm_17_25_explore: 0.1838</title></circle>
<circle class="fail" cx="384.25" cy="293.67" r="3.2"><title>#77 lightgbm_18_26_lr043: 0.1833</title></circle>
<circle class="fail" cx="388.28" cy="310.11" r="3.2"><title>#78 lightgbm_13_21_balanced: 0.1822</title></circle>
<circle class="fail" cx="392.31" cy="301.14" r="3.2"><title>#79 lightgbm_14_23_med_lr: 0.1828</title></circle>
<circle class="fail" cx="396.34" cy="329.55" r="3.2"><title>#80 lightgbm_15_24_v2: 0.1809</title></circle>
<circle class="fail" cx="400.37" cy="343.00" r="3.2"><title>#81 lightgbm_15_24_low_lr: 0.1800</title></circle>
<circle class="fail" cx="404.40" cy="295.16" r="3.2"><title>#82 lightgbm_12_20_high_min: 0.1832</title></circle>
<circle class="fail" cx="408.43" cy="642.00" r="3.2"><title>#83 catboost_baseline: 0.1377</title></circle>
<circle class="fail" cx="412.46" cy="275.73" r="3.2"><title>#84 lightgbm_deep_diversity: 0.1845</title></circle>
<circle class="fail" cx="416.49" cy="260.78" r="3.2"><title>#85 lightgbm_extreme_random: 0.1855</title></circle>
<circle class="fail" cx="420.52" cy="232.37" r="3.2"><title>#86 lightgbm_extreme_variant: 0.1874</title></circle>
<circle class="fail" cx="424.55" cy="278.72" r="3.2"><title>#87 lightgbm_ultra_random: 0.1843</title></circle>
<circle class="fail" cx="428.58" cy="296.65" r="3.2"><title>#88 lightgbm_optimal_random: 0.1831</title></circle>
<circle class="fail" cx="432.61" cy="247.32" r="3.2"><title>#89 lightgbm_extreme_v2: 0.1864</title></circle>
<circle class="fail" cx="440.67" cy="257.79" r="3.2"><title>#91 lightgbm_diverse_v2: 0.1857</title></circle>
<circle class="fail" cx="444.70" cy="269.75" r="3.2"><title>#92 lightgbm_diverse_v3: 0.1849</title></circle>
<circle class="fail" cx="448.73" cy="197.99" r="3.2"><title>#93 lightgbm_diverse_repro: 0.1897</title></circle>
<circle class="fail" cx="452.76" cy="280.21" r="3.2"><title>#94 lightgbm_19_breaker: 0.1842</title></circle>
<circle class="fail" cx="456.79" cy="193.50" r="3.2"><title>#95 lightgbm_diverse_closer: 0.1900</title></circle>
<circle class="fail" cx="460.81" cy="293.67" r="3.2"><title>#96 lightgbm_19_plus: 0.1833</title></circle>
<circle class="fail" cx="464.84" cy="181.54" r="3.2"><title>#97 lightgbm_19_final: 0.1908</title></circle>
<circle class="fail" cx="468.87" cy="271.24" r="3.2"><title>#98 lightgbm_191_push: 0.1848</title></circle>
<circle class="fail" cx="472.90" cy="247.32" r="3.2"><title>#99 lightgbm_191_v2: 0.1864</title></circle>
<circle class="fail" cx="476.93" cy="181.54" r="3.2"><title>#100 lightgbm_191_exact: 0.1908</title></circle>
<circle class="fail" cx="480.96" cy="302.64" r="3.2"><title>#101 lightgbm_191_slight: 0.1827</title></circle>
<circle class="fail" cx="484.99" cy="220.41" r="3.2"><title>#102 lightgbm_191_more_rounds: 0.1882</title></circle>
<circle class="fail" cx="489.02" cy="200.98" r="3.2"><title>#103 lightgbm_191_mid: 0.1895</title></circle>
<circle class="fail" cx="493.05" cy="269.75" r="3.2"><title>#104 lightgbm_191_17_leaves: 0.1849</title></circle>
<circle class="fail" cx="497.08" cy="254.79" r="3.2"><title>#105 lightgbm_191_lower_min: 0.1859</title></circle>
<circle class="fail" cx="501.11" cy="223.40" r="3.2"><title>#106 lightgbm_191_slide: 0.1880</title></circle>
<circle class="fail" cx="505.14" cy="186.03" r="3.2"><title>#107 lightgbm_191_higher_lr: 0.1905</title></circle>
<circle class="fail" cx="509.17" cy="217.42" r="3.2"><title>#108 lightgbm_191_compact: 0.1884</title></circle>
<circle class="fail" cx="513.20" cy="180.05" r="3.2"><title>#109 lightgbm_191_exact_v2: 0.1909</title></circle>
<circle class="fail" cx="517.23" cy="183.03" r="3.2"><title>#110 lightgbm_191_exact_v3: 0.1907</title></circle>
<circle class="fail" cx="521.26" cy="178.55" r="3.2"><title>#111 lightgbm_191_exact_v4: 0.1910</title></circle>
<circle class="fail" cx="525.29" cy="180.05" r="3.2"><title>#112 lightgbm_191_try: 0.1909</title></circle>
<circle class="fail" cx="529.32" cy="209.94" r="3.2"><title>#113 lightgbm_191_sweeter: 0.1889</title></circle>
<circle class="fail" cx="533.35" cy="184.53" r="3.2"><title>#114 lightgbm_0001_autotune: 0.1906</title></circle>
<circle class="fail" cx="537.38" cy="192.01" r="3.2"><title>#115 lightgbm_0002_autotune: 0.1901</title></circle>
<circle class="fail" cx="541.41" cy="192.01" r="3.2"><title>#116 lightgbm_0002_autotune: 0.1901</title></circle>
<circle class="fail" cx="545.44" cy="192.01" r="3.2"><title>#117 lightgbm_0002_autotune: 0.1901</title></circle>
<circle class="fail" cx="549.47" cy="177.06" r="3.2"><title>#118 lightgbm_0001_autotune: 0.1911</title></circle>
<circle class="fail" cx="553.50" cy="177.06" r="3.2"><title>#119 lightgbm_0001_autotune: 0.1911</title></circle>
<circle class="fail" cx="557.53" cy="181.54" r="3.2"><title>#120 lightgbm_0001_autotune: 0.1908</title></circle>
<circle class="fail" cx="561.56" cy="187.52" r="3.2"><title>#121 lightgbm_0001_autotune: 0.1904</title></circle>
<circle class="fail" cx="565.59" cy="218.92" r="3.2"><title>#122 lightgbm_0001_autotune: 0.1883</title></circle>
<circle class="fail" cx="569.61" cy="196.49" r="3.2"><title>#123 lightgbm_0001_autotune: 0.1898</title></circle>
<circle class="fail" cx="573.64" cy="235.36" r="3.2"><title>#124 lightgbm_0002_autotune: 0.1872</title></circle>
<circle class="fail" cx="577.67" cy="187.52" r="3.2"><title>#125 lightgbm_0003_autotune: 0.1904</title></circle>
<circle class="fail" cx="581.70" cy="181.54" r="3.2"><title>#126 lightgbm_0004_autotune: 0.1908</title></circle>
<circle class="fail" cx="585.73" cy="181.54" r="3.2"><title>#127 lightgbm_0005_autotune: 0.1908</title></circle>
<circle class="fail" cx="589.76" cy="277.22" r="3.2"><title>#128 lightgbm_ft_0001: 0.1844</title></circle>
<circle class="fail" cx="593.79" cy="186.03" r="3.2"><title>#129 lightgbm_ft_0002: 0.1905</title></circle>
<circle class="fail" cx="597.82" cy="184.53" r="3.2"><title>#130 lightgbm_ft_0003: 0.1906</title></circle>
<circle class="fail" cx="601.85" cy="281.70" r="3.2"><title>#131 lightgbm_ft_0004: 0.1841</title></circle>
<circle class="fail" cx="605.88" cy="177.06" r="3.2"><title>#132 lightgbm_ft_0005: 0.1911</title></circle>
<circle class="fail" cx="609.91" cy="186.03" r="3.2"><title>#133 lightgbm_ft_0006: 0.1905</title></circle>
<circle class="fail" cx="613.94" cy="180.05" r="3.2"><title>#134 lightgbm_ft_0007: 0.1909</title></circle>
<circle class="fail" cx="617.97" cy="177.06" r="3.2"><title>#135 lightgbm_ft_0008: 0.1911</title></circle>
<circle class="fail" cx="622.00" cy="229.38" r="3.2"><title>#136 lightgbm_ex_0009: 0.1876</title></circle>
<circle class="fail" cx="626.03" cy="224.89" r="3.2"><title>#137 lightgbm_ex_0010: 0.1879</title></circle>
<circle class="fail" cx="630.06" cy="280.21" r="3.2"><title>#138 lightgbm_ex_0011: 0.1842</title></circle>
<circle class="fail" cx="634.09" cy="280.21" r="3.2"><title>#139 lightgbm_ex_0012: 0.1842</title></circle>
<circle class="fail" cx="638.12" cy="274.23" r="3.2"><title>#140 lightgbm_ex_0013: 0.1846</title></circle>
<circle class="fail" cx="642.15" cy="239.84" r="3.2"><title>#141 lightgbm_ex_0014: 0.1869</title></circle>
<circle class="fail" cx="646.18" cy="308.62" r="3.2"><title>#142 lightgbm_ex_0015: 0.1823</title></circle>
<circle class="fail" cx="650.21" cy="230.88" r="3.2"><title>#143 lightgbm_ex_0016: 0.1875</title></circle>
<circle class="fail" cx="654.24" cy="244.33" r="3.2"><title>#144 lightgbm_ex_0017: 0.1866</title></circle>
<circle class="fail" cx="658.27" cy="205.46" r="3.2"><title>#145 lightgbm_ex_0018: 0.1892</title></circle>
<circle class="fail" cx="662.30" cy="256.29" r="3.2"><title>#146 lightgbm_ex_0019: 0.1858</title></circle>
<circle class="fail" cx="666.33" cy="211.44" r="3.2"><title>#147 lightgbm_ex_0020: 0.1888</title></circle>
<circle class="fail" cx="670.36" cy="247.32" r="3.2"><title>#148 lightgbm_ft_0001: 0.1864</title></circle>
<circle class="fail" cx="674.39" cy="268.25" r="3.2"><title>#149 lightgbm_ft_0002: 0.1850</title></circle>
<circle class="fail" cx="678.41" cy="290.68" r="3.2"><title>#150 lightgbm_ft_0003: 0.1835</title></circle>
<circle class="fail" cx="682.44" cy="247.32" r="3.2"><title>#151 lightgbm_ft_0004: 0.1864</title></circle>
<circle class="fail" cx="686.47" cy="253.30" r="3.2"><title>#152 lightgbm_ft_0005: 0.1860</title></circle>
<circle class="fail" cx="690.50" cy="251.81" r="3.2"><title>#153 lightgbm_ft_0006: 0.1861</title></circle>
<circle class="fail" cx="694.53" cy="245.83" r="3.2"><title>#154 lightgbm_ft_0007: 0.1865</title></circle>
<circle class="fail" cx="698.56" cy="269.75" r="3.2"><title>#155 lightgbm_ft_0008: 0.1849</title></circle>
<circle class="fail" cx="702.59" cy="253.30" r="3.2"><title>#156 lightgbm_ex_0009: 0.1860</title></circle>
<circle class="fail" cx="706.62" cy="262.27" r="3.2"><title>#157 lightgbm_ex_0010: 0.1854</title></circle>
<circle class="fail" cx="710.65" cy="262.27" r="3.2"><title>#158 lightgbm_ex_0011: 0.1854</title></circle>
<circle class="fail" cx="714.68" cy="298.15" r="3.2"><title>#159 lightgbm_ps_0001: 0.1830</title></circle>
<circle class="fail" cx="718.71" cy="281.70" r="3.2"><title>#160 lightgbm_ft_0001: 0.1841</title></circle>
<circle class="fail" cx="722.74" cy="271.24" r="3.2"><title>#161 lightgbm_ft_0001: 0.1848</title></circle>
<circle class="fail" cx="726.77" cy="283.20" r="3.2"><title>#162 lightgbm_ft_0001: 0.1840</title></circle>
<circle class="fail" cx="730.80" cy="293.67" r="3.2"><title>#163 lightgbm_ft_0002: 0.1833</title></circle>
<circle class="fail" cx="734.83" cy="277.22" r="3.2"><title>#164 lightgbm_ft_0003: 0.1844</title></circle>
<circle class="fail" cx="738.86" cy="293.67" r="3.2"><title>#165 lightgbm_ft_0004: 0.1833</title></circle>
<circle class="fail" cx="742.89" cy="265.26" r="3.2"><title>#166 lightgbm_ft_0005: 0.1852</title></circle>
<circle class="fail" cx="746.92" cy="343.00" r="3.2"><title>#167 lightgbm_ft_0006: 0.1800</title></circle>
<circle class="fail" cx="750.95" cy="274.23" r="3.2"><title>#168 lightgbm_ft_0007: 0.1846</title></circle>
<circle class="fail" cx="754.98" cy="197.99" r="3.2"><title>#169 lightgbm_ft_0008: 0.1897</title></circle>
<circle class="fail" cx="759.01" cy="192.01" r="3.2"><title>#170 lightgbm_ft_0001: 0.1901</title></circle>
<circle class="fail" cx="763.04" cy="202.47" r="3.2"><title>#171 lightgbm_ft_0002: 0.1894</title></circle>
<circle class="fail" cx="767.07" cy="221.91" r="3.2"><title>#172 lightgbm_ex_0001: 0.1881</title></circle>
<circle class="fail" cx="771.10" cy="230.88" r="3.2"><title>#173 lightgbm_ft_0002: 0.1875</title></circle>
<circle class="fail" cx="775.13" cy="271.24" r="3.2"><title>#174 lightgbm_ft_0003: 0.1848</title></circle>
<circle class="fail" cx="779.16" cy="227.89" r="3.2"><title>#175 lightgbm_ft_0004: 0.1877</title></circle>
<circle class="fail" cx="783.19" cy="263.77" r="3.2"><title>#176 lightgbm_ft_0005: 0.1853</title></circle>
<circle class="fail" cx="787.21" cy="263.77" r="3.2"><title>#177 lightgbm_ex_0006: 0.1853</title></circle>
<circle class="fail" cx="791.24" cy="180.05" r="3.2"><title>#178 lightgbm_restart: 0.1909</title></circle>
<circle class="fail" cx="795.27" cy="268.25" r="3.2"><title>#179 lightgbm_explore_0001: 0.1850</title></circle>
<circle class="fail" cx="799.30" cy="233.87" r="3.2"><title>#180 lightgbm_fine_tune_0002: 0.1873</title></circle>
<circle class="fail" cx="803.33" cy="259.28" r="3.2"><title>#181 lightgbm_explore_0003: 0.1856</title></circle>
<circle class="fail" cx="807.36" cy="250.31" r="3.2"><title>#182 lightgbm_fine_tune_0004: 0.1862</title></circle>
<circle class="fail" cx="811.39" cy="265.26" r="3.2"><title>#183 lightgbm_fine_tune_0005: 0.1852</title></circle>
<circle class="fail" cx="815.42" cy="265.26" r="3.2"><title>#184 lightgbm_fine_tune_0006: 0.1852</title></circle>
<circle class="fail" cx="819.45" cy="218.92" r="3.2"><title>#185 lightgbm_fine_tune_0007: 0.1883</title></circle>
<circle class="fail" cx="823.48" cy="245.83" r="3.2"><title>#186 lightgbm_fine_tune_0008: 0.1865</title></circle>
<circle class="fail" cx="827.51" cy="269.75" r="3.2"><title>#187 lightgbm_explore_0009: 0.1849</title></circle>
<circle class="fail" cx="831.54" cy="241.34" r="3.2"><title>#188 lightgbm_fine_tune_0010: 0.1868</title></circle>
<circle class="fail" cx="835.57" cy="215.93" r="3.2"><title>#189 lightgbm_explore_0011: 0.1885</title></circle>
<circle class="fail" cx="839.60" cy="215.93" r="3.2"><title>#190 lightgbm_fine_tune_0012: 0.1885</title></circle>
<circle class="fail" cx="843.63" cy="233.87" r="3.2"><title>#191 lightgbm_fine_tune_0013: 0.1873</title></circle>
<circle class="fail" cx="847.66" cy="241.34" r="3.2"><title>#192 lightgbm_explore_0014: 0.1868</title></circle>
<circle class="fail" cx="851.69" cy="226.39" r="3.2"><title>#193 lightgbm_fine_tune_0015: 0.1878</title></circle>
<circle class="fail" cx="855.72" cy="257.79" r="3.2"><title>#194 lightgbm_fine_tune_0016: 0.1857</title></circle>
<circle class="fail" cx="859.75" cy="227.89" r="3.2"><title>#195 lightgbm_fine_tune_0017: 0.1877</title></circle>
<circle class="fail" cx="863.78" cy="212.94" r="3.2"><title>#196 lightgbm_fine_tune_0018: 0.1887</title></circle>
<circle class="fail" cx="867.81" cy="271.24" r="3.2"><title>#197 lightgbm_fine_tune_0019: 0.1848</title></circle>
<circle class="fail" cx="871.84" cy="227.89" r="3.2"><title>#198 lightgbm_fine_tune_0001: 0.1877</title></circle>
<circle class="fail" cx="875.87" cy="253.30" r="3.2"><title>#199 lightgbm_fine_tune_0002: 0.1860</title></circle>
<circle class="fail" cx="879.90" cy="265.26" r="3.2"><title>#200 lightgbm_fine_tune_0003: 0.1852</title></circle>
<circle class="fail" cx="883.93" cy="232.37" r="3.2"><title>#201 lightgbm_explore_0004: 0.1874</title></circle>
<circle class="fail" cx="887.96" cy="199.48" r="3.2"><title>#202 lightgbm_fine_tune_0005: 0.1896</title></circle>
<circle class="fail" cx="891.99" cy="232.37" r="3.2"><title>#203 lightgbm_fine_tune_0006: 0.1874</title></circle>
<circle class="fail" cx="896.01" cy="241.34" r="3.2"><title>#204 lightgbm_fine_tune_0007: 0.1868</title></circle>
<circle class="fail" cx="900.04" cy="254.79" r="3.2"><title>#205 lightgbm_fine_tune_0008: 0.1859</title></circle>
<circle class="fail" cx="904.07" cy="256.29" r="3.2"><title>#206 lightgbm_fine_tune_0009: 0.1858</title></circle>
<circle class="fail" cx="908.10" cy="263.77" r="3.2"><title>#207 lightgbm_fine_tune_0010: 0.1853</title></circle>
<circle class="fail" cx="912.13" cy="277.22" r="3.2"><title>#208 lightgbm_fine_tune_0011: 0.1844</title></circle>
<circle class="fail" cx="916.16" cy="250.31" r="3.2"><title>#209 lightgbm_fine_tune_0012: 0.1862</title></circle>
<circle class="fail" cx="920.19" cy="206.96" r="3.2"><title>#210 lightgbm_fine_tune_0013: 0.1891</title></circle>
<circle class="fail" cx="924.22" cy="229.38" r="3.2"><title>#211 lightgbm_fine_tune_0014: 0.1876</title></circle>
<circle class="fail" cx="928.25" cy="259.28" r="3.2"><title>#212 lightgbm_fine_tune_0015: 0.1856</title></circle>
<circle class="fail" cx="932.28" cy="248.82" r="3.2"><title>#213 lightgbm_fine_tune_0016: 0.1863</title></circle>
<circle class="fail" cx="936.31" cy="205.46" r="3.2"><title>#214 lightgbm_explore_0017: 0.1892</title></circle>
<circle class="fail" cx="940.34" cy="238.35" r="3.2"><title>#215 lightgbm_fine_tune_0018: 0.1870</title></circle>
<circle class="fail" cx="944.37" cy="266.76" r="3.2"><title>#216 lightgbm_explore_0019: 0.1851</title></circle>
<circle class="fail" cx="948.40" cy="295.16" r="3.2"><title>#217 lightgbm_fine_tune_0020: 0.1832</title></circle>
<circle class="fail" cx="952.43" cy="180.05" r="3.2"><title>#218 lightgbm_best_191: 0.1909</title></circle>
<circle class="fail" cx="956.46" cy="290.68" r="3.2"><title>#219 lightgbm_ps_0001: 0.1835</title></circle>
<circle class="fail" cx="960.49" cy="266.76" r="3.2"><title>#220 lightgbm_ps_0002: 0.1851</title></circle>
<circle class="fail" cx="964.52" cy="233.87" r="3.2"><title>#221 lightgbm_ex_0003: 0.1873</title></circle>
<circle class="fail" cx="968.55" cy="260.78" r="3.2"><title>#222 lightgbm_ps_0004: 0.1855</title></circle>
<circle class="fail" cx="972.58" cy="286.19" r="3.2"><title>#223 lightgbm_ex_0005: 0.1838</title></circle>
<circle class="fail" cx="976.61" cy="268.25" r="3.2"><title>#224 lightgbm_ft_0006: 0.1850</title></circle>
<circle class="fail" cx="980.64" cy="217.42" r="3.2"><title>#225 lightgbm_ex_0007: 0.1884</title></circle>
<circle class="fail" cx="984.67" cy="221.91" r="3.2"><title>#226 lightgbm_ex_0008: 0.1881</title></circle>
<circle class="fail" cx="988.70" cy="205.46" r="3.2"><title>#227 lightgbm_ps_0009: 0.1892</title></circle>
<circle class="fail" cx="992.73" cy="259.28" r="3.2"><title>#228 lightgbm_ft_0010: 0.1856</title></circle>
<circle class="fail" cx="996.76" cy="221.91" r="3.2"><title>#229 lightgbm_ft_0011: 0.1881</title></circle>
<circle class="fail" cx="1000.79" cy="212.94" r="3.2"><title>#230 lightgbm_ex_0012: 0.1887</title></circle>
<circle class="fail" cx="1004.81" cy="311.60" r="3.2"><title>#231 lightgbm_ft_0013: 0.1821</title></circle>
<circle class="fail" cx="1008.84" cy="220.41" r="3.2"><title>#232 lightgbm_ft_0014: 0.1882</title></circle>
<circle class="fail" cx="1012.87" cy="227.89" r="3.2"><title>#233 lightgbm_ft_0015: 0.1877</title></circle>
<circle class="fail" cx="1016.90" cy="226.39" r="3.2"><title>#234 lightgbm_ex_0016: 0.1878</title></circle>
<circle class="fail" cx="1020.93" cy="247.32" r="3.2"><title>#235 lightgbm_ex_0017: 0.1864</title></circle>
<circle class="fail" cx="1024.96" cy="295.16" r="3.2"><title>#236 lightgbm_ft_0018: 0.1832</title></circle>
<circle class="fail" cx="1028.99" cy="253.30" r="3.2"><title>#237 lightgbm_ft_0019: 0.1860</title></circle>
<circle class="fail" cx="1033.02" cy="259.28" r="3.2"><title>#238 lightgbm_ps_0020: 0.1856</title></circle>
<circle class="fail" cx="1041.08" cy="263.77" r="3.2"><title>#240 lightgbm_ex_0002: 0.1853</title></circle>
<circle class="fail" cx="1045.11" cy="245.83" r="3.2"><title>#241 lightgbm_ps_0003: 0.1865</title></circle>
<circle class="fail" cx="1049.14" cy="289.18" r="3.2"><title>#242 lightgbm_ft_0004: 0.1836</title></circle>
<circle class="fail" cx="1053.17" cy="248.82" r="3.2"><title>#243 lightgbm_ex_0005: 0.1863</title></circle>
<circle class="fail" cx="1057.20" cy="295.16" r="3.2"><title>#244 lightgbm_ft_0006: 0.1832</title></circle>
<circle class="fail" cx="1061.23" cy="287.69" r="3.2"><title>#245 lightgbm_ft_0007: 0.1837</title></circle>
<circle class="fail" cx="1065.26" cy="220.41" r="3.2"><title>#246 lightgbm_ps_0008: 0.1882</title></circle>
<circle class="fail" cx="1069.29" cy="275.73" r="3.2"><title>#247 lightgbm_ft_0009: 0.1845</title></circle>
<circle class="fail" cx="1073.32" cy="277.22" r="3.2"><title>#248 lightgbm_ft_0010: 0.1844</title></circle>
<circle class="fail" cx="1077.35" cy="227.89" r="3.2"><title>#249 lightgbm_ft_0011: 0.1877</title></circle>
<circle class="fail" cx="1081.38" cy="265.26" r="3.2"><title>#250 lightgbm_ft_0012: 0.1852</title></circle>
<circle class="fail" cx="1085.41" cy="250.31" r="3.2"><title>#251 lightgbm_ft_0013: 0.1862</title></circle>
<circle class="fail" cx="1089.44" cy="275.73" r="3.2"><title>#252 lightgbm_ps_0014: 0.1845</title></circle>
<circle class="fail" cx="1093.47" cy="253.30" r="3.2"><title>#253 lightgbm_ft_0015: 0.1860</title></circle>
<circle class="fail" cx="1097.50" cy="274.23" r="3.2"><title>#254 lightgbm_ft_0016: 0.1846</title></circle>
<circle class="fail" cx="1101.53" cy="244.33" r="3.2"><title>#255 lightgbm_ex_0017: 0.1866</title></circle>
<circle class="fail" cx="1105.56" cy="253.30" r="3.2"><title>#256 lightgbm_ft_0018: 0.1860</title></circle>
<circle class="fail" cx="1109.59" cy="292.17" r="3.2"><title>#257 lightgbm_ps_0019: 0.1834</title></circle>
<circle class="fail" cx="1113.61" cy="212.94" r="3.2"><title>#258 lightgbm_ft_0020: 0.1887</title></circle>
<circle class="fail" cx="1117.64" cy="254.79" r="3.2"><title>#259 lightgbm_ft_0021: 0.1859</title></circle>
<circle class="fail" cx="1121.67" cy="220.41" r="3.2"><title>#260 lightgbm_ft_0022: 0.1882</title></circle>
<circle class="fail" cx="1125.70" cy="236.86" r="3.2"><title>#261 lightgbm_ft_0023: 0.1871</title></circle>
<circle class="fail" cx="1129.73" cy="251.81" r="3.2"><title>#262 lightgbm_ex_0024: 0.1861</title></circle>
<circle class="fail" cx="1133.76" cy="260.78" r="3.2"><title>#263 lightgbm_ft_0025: 0.1855</title></circle>
<circle class="fail" cx="1137.79" cy="292.17" r="3.2"><title>#264 lightgbm_ft_0026: 0.1834</title></circle>
<circle class="fail" cx="1141.82" cy="229.38" r="3.2"><title>#265 lightgbm_ex_0027: 0.1876</title></circle>
<circle class="fail" cx="1145.85" cy="223.40" r="3.2"><title>#266 lightgbm_ex_0028: 0.1880</title></circle>
<circle class="fail" cx="1149.88" cy="221.91" r="3.2"><title>#267 lightgbm_ft_0029: 0.1881</title></circle>
<circle class="fail" cx="1153.91" cy="271.24" r="3.2"><title>#268 lightgbm_ft_0030: 0.1848</title></circle>
<circle class="fail" cx="1157.94" cy="293.67" r="3.2"><title>#269 lightgbm_ft_0031: 0.1833</title></circle>
<circle class="fail" cx="1161.97" cy="257.79" r="3.2"><title>#270 lightgbm_ex_0032: 0.1857</title></circle>
<circle class="fail" cx="1166.00" cy="274.23" r="3.2"><title>#271 lightgbm_ex_0033: 0.1846</title></circle>
<circle class="keep" cx="94.12" cy="302.64" r="4.0"><title>#5 lightgbm_regularized_challenger: 0.1827</title></circle>
<circle class="keep" cx="436.64" cy="197.99" r="4.0"><title>#90 lightgbm_diverse_sweet: 0.1897</title></circle>
<circle class="keep" cx="1037.05" cy="245.83" r="4.0"><title>#239 lightgbm_ft_0001: 0.1865</title></circle>
<circle class="best" cx="549.47" cy="177.06" r="5.5"><title>Best #118 lightgbm_0001_autotune: 0.1911</title></circle>
<line class="axis" x1="78" y1="642" x2="1166" y2="642"/>
<line class="axis" x1="78" y1="44" x2="78" y2="642"/>
<text x="600.0" y="696" font-size="15" text-anchor="middle">Experiment number</text>
<text transform="translate(22 360.0) rotate(-90)" font-size="15" text-anchor="middle">Capped Pure Premium Gini</text>
<rect x="925" y="62" width="240" height="96" rx="6" fill="#ffffff" stroke="#d8dee5"/>
<circle class="keep" cx="943" cy="84" r="4"/><text x="957" y="88" font-size="13">Accepted (3)</text>
<circle class="fail" cx="943" cy="112" r="4"/><text x="957" y="116" font-size="13">Not accepted (267)</text>
<line class="run" x1="935" y1="140" x2="951" y2="140"/><text x="957" y="144" font-size="13">Running best</text>
</svg>